<svg xmlns="http://www.w3.org/2000/svg" viewBox="0 0 900 600">
<style>
  .kab { transition: fill 200ms ease; cursor: pointer; }
  .kab:hover { fill: #B8860B; }
  .kab.active { fill: #F5C400; }
</style>
<g id="jawa-tengah">
  <path id="purworejo" data-name="Purworejo" class="kab" fill="#C8B89A" stroke="#3B1F0C" stroke-width="0.8" d="M425.03,508.97 L367.69,494.37 L371.98,481.37 L370.0,470.03 L369.54,468.34 L361.92,466.81 L360.61,463.74 L363.39,458.15 L360.78,452.8 L365.26,449.31 L365.53,441.12 L381.08,430.52 L379.76,426.78 L381.73,425.7 L383.34,427.22 L388.99,423.71 L399.92,427.39 L408.86,427.62 L407.38,433.9 L410.3,437.05 L414.81,436.72 L415.32,439.98 L420.76,439.12 L419.98,434.68 L425.58,431.78 L426.49,426.95 L432.22,433.02 L432.45,436.74 L434.68,435.72 L436.55,436.96 L441.18,434.5 L443.97,435.41 L444.34,440.13 L449.07,444.21 L450.45,449.21 L454.87,452.36 L447.77,458.85 L454.07,463.5 L450.97,468.4 L452.92,469.6 L449.95,471.7 L451.93,475.37 L446.97,479.36 L446.62,482.24 L443.97,481.71 L438.18,488.73 L433.36,490.15 L432.45,496.02 L429.81,496.69 L425.03,508.97 Z"><title>Purworejo</title></path>
  <path id="kendal" data-name="Kendal" class="kab" fill="#C8B89A" stroke="#3B1F0C" stroke-width="0.8" d="M429.82,335.05 L407.26,349.74 L398.38,352.52 L394.87,349.15 L406.02,328.36 L409.88,325.48 L409.03,314.64 L419.68,311.25 L422.92,306.5 L430.08,302.55 L430.05,293.88 L427.16,294.03 L424.51,291.31 L428.43,289.31 L423.3,287.18 L454.59,279.07 L463.79,274.16 L463.41,269.44 L465.26,272.9 L474.54,275.3 L475.13,275.83 L476.22,275.81 L477.58,276.33 L478.35,276.78 L475.86,276.38 L485.91,286.73 L491.8,288.28 L493.63,286.68 L494.9,289.46 L500.56,291.08 L496.04,295.89 L498.28,298.05 L497.19,299.97 L494.31,300.04 L496.99,302.78 L493.33,304.93 L494.45,309.34 L491.47,309.68 L490.05,311.89 L490.56,316.33 L496.82,319.22 L499.71,329.93 L502.39,331.34 L510.76,329.64 L511.11,326.21 L512.99,337.8 L510.38,342.05 L516.57,346.68 L499.85,351.09 L494.24,349.46 L490.78,351.95 L483.43,348.61 L474.64,348.88 L468.89,345.92 L466.8,341.23 L456.32,339.51 L454.07,337.17 L455.84,335.28 L459.82,335.42 L461.7,332.43 L469.13,330.88 L467.6,330.05 L469.1,325.25 L466.37,324.52 L464.19,329.82 L447.28,328.46 L437.08,334.3 L429.82,335.05 Z"><title>Kendal</title></path>
  <path id="demak" data-name="Demak" class="kab" fill="#C8B89A" stroke="#3B1F0C" stroke-width="0.8" d="M561.89,336.76 L552.06,331.82 L553.13,328.85 L546.96,326.78 L553.49,322.23 L550.04,318.92 L548.26,319.68 L548.19,317.11 L548.73,313.54 L553.0,312.93 L553.74,309.2 L550.52,307.82 L554.65,302.47 L553.43,296.32 L550.54,296.95 L551.06,295.15 L548.03,294.7 L547.1,293.44 L550.13,294.5 L548.57,293.28 L548.42,292.64 L550.45,294.1 L553.47,293.12 L547.23,289.91 L549.88,289.45 L551.16,290.57 L549.17,290.81 L553.85,292.76 L554.42,293.69 L558.16,292.9 L555.78,291.71 L556.27,291.29 L560.54,292.4 L559.68,291.44 L554.62,288.97 L552.38,287.57 L549.65,287.71 L552.11,286.45 L561.32,291.99 L551.72,285.37 L554.65,284.46 L557.5,275.38 L561.15,272.78 L559.29,269.89 L565.95,266.73 L569.7,263.11 L571.51,256.71 L574.09,255.79 L570.99,253.62 L569.49,255.84 L566.91,255.8 L567.15,253.63 L563.61,250.44 L569.87,251.08 L566.61,246.51 L570.51,244.2 L574.13,247.7 L586.68,241.3 L598.31,243.24 L600.27,245.3 L599.12,254.11 L606.69,254.87 L609.38,260.81 L613.75,259.43 L628.84,262.59 L634.8,270.62 L638.25,270.46 L640.92,273.33 L643.2,272.52 L644.39,274.72 L631.66,287.06 L632.48,291.63 L629.3,291.99 L631.3,292.7 L629.93,294.88 L628.06,294.57 L629.72,295.24 L629.06,298.94 L625.78,300.05 L628.42,301.56 L624.87,303.28 L628.02,304.77 L625.6,307.07 L628.83,307.49 L625.66,307.99 L625.6,311.3 L622.64,311.14 L625.25,311.98 L616.08,314.48 L606.34,311.17 L605.34,314.27 L599.65,319.26 L599.96,316.71 L605.56,311.97 L600.72,308.89 L602.17,304.18 L599.35,303.23 L600.27,301.62 L596.7,300.87 L587.35,301.55 L587.72,309.43 L582.17,318.47 L579.7,318.93 L577.44,323.48 L573.88,322.85 L569.95,326.01 L575.64,333.94 L572.57,340.45 L564.85,335.97 L561.89,336.76 Z"><title>Demak</title></path>
  <path id="boyolali" data-name="Boyolali" class="kab" fill="#C8B89A" stroke="#3B1F0C" stroke-width="0.8" d="M565.19,448.04 L559.28,447.05 L556.98,443.69 L559.34,442.96 L550.64,438.19 L543.74,429.87 L536.58,428.67 L530.74,424.0 L519.52,422.46 L524.53,419.42 L530.33,418.67 L535.02,413.98 L539.4,403.84 L543.46,399.2 L547.95,397.75 L553.21,399.98 L555.24,398.68 L557.68,400.77 L556.31,401.65 L557.98,406.14 L563.87,404.87 L568.69,408.43 L571.12,403.31 L572.63,405.58 L573.94,402.94 L579.63,408.66 L576.62,408.34 L575.88,406.17 L571.3,407.05 L575.98,407.92 L576.54,411.35 L574.77,411.58 L581.11,417.57 L597.51,418.98 L595.82,413.62 L588.43,412.19 L594.01,407.92 L586.6,409.44 L591.21,398.5 L590.23,394.83 L586.97,392.88 L590.62,390.53 L589.48,383.31 L592.56,380.3 L582.85,382.42 L580.61,372.8 L584.5,370.77 L587.25,371.41 L587.64,367.79 L590.82,366.46 L586.99,357.2 L597.7,357.45 L600.89,360.59 L606.15,361.39 L606.5,357.6 L609.68,355.53 L606.11,353.32 L605.38,349.72 L613.02,345.83 L617.03,339.9 L620.28,338.55 L621.78,340.58 L620.1,344.07 L626.73,346.85 L624.6,349.05 L629.13,348.58 L628.83,350.04 L631.53,350.74 L626.39,362.14 L636.01,359.93 L643.99,351.59 L649.01,352.45 L651.62,355.09 L647.48,355.82 L643.34,361.01 L646.15,366.23 L636.67,366.22 L633.92,369.03 L636.39,380.86 L635.46,385.7 L631.83,388.96 L636.12,390.08 L628.02,395.46 L626.99,400.73 L630.62,404.59 L627.63,406.68 L632.55,410.39 L636.77,410.53 L639.73,424.84 L637.68,427.5 L630.29,425.07 L610.61,427.0 L611.17,430.71 L615.34,431.84 L608.71,440.83 L605.51,439.37 L591.97,439.15 L580.7,435.29 L579.86,439.63 L573.53,438.15 L566.08,442.45 L567.24,444.47 L564.65,445.96 L565.19,448.04 Z M575.34,408.94 L574.26,408.81 L573.97,409.15 L575.34,408.94 Z"><title>Boyolali</title></path>
  <path id="banjarnegara" data-name="Banjarnegara" class="kab" fill="#C8B89A" stroke="#3B1F0C" stroke-width="0.8" d="M273.95,423.75 L252.61,428.94 L246.67,424.75 L241.7,423.67 L241.0,416.43 L252.17,414.28 L251.83,412.36 L256.64,414.96 L257.73,410.53 L262.28,408.13 L264.46,409.74 L265.32,407.67 L267.8,409.05 L273.97,406.47 L280.39,408.49 L279.39,399.74 L291.65,398.4 L287.37,387.26 L284.02,384.3 L286.49,379.94 L296.09,381.93 L297.39,374.83 L302.15,373.14 L297.95,366.7 L289.52,362.13 L293.24,359.2 L300.38,357.08 L303.59,353.7 L309.47,354.55 L315.93,347.07 L319.61,345.91 L325.57,347.28 L328.57,346.08 L331.02,351.02 L341.03,352.56 L348.26,347.51 L360.97,345.58 L370.28,349.77 L374.49,347.1 L382.35,350.07 L385.01,347.3 L389.83,351.17 L393.28,349.84 L390.46,357.0 L380.42,358.18 L376.29,361.33 L372.26,371.5 L360.29,380.82 L356.57,388.82 L347.83,394.64 L359.27,399.93 L369.31,401.65 L370.21,407.68 L357.86,408.01 L351.72,405.4 L329.52,420.51 L318.98,418.55 L316.85,414.95 L309.99,420.67 L302.83,423.24 L296.11,421.82 L293.03,422.32 L291.28,424.83 L278.35,420.46 L273.95,423.75 Z"><title>Banjarnegara</title></path>
  <path id="blora" data-name="Blora" class="kab" fill="#C8B89A" stroke="#3B1F0C" stroke-width="0.8" d="M768.96,372.23 L757.26,371.34 L751.69,365.66 L757.08,360.85 L756.04,357.87 L758.71,346.97 L752.51,329.04 L749.65,328.84 L750.14,313.88 L736.82,303.45 L720.84,302.13 L717.23,291.37 L718.85,288.4 L722.54,286.55 L727.79,289.13 L729.81,284.41 L735.01,286.52 L745.63,283.76 L746.07,278.79 L751.24,277.56 L752.19,273.13 L757.05,276.16 L761.49,274.04 L771.33,277.35 L780.9,277.54 L785.79,281.44 L793.96,282.62 L799.99,282.53 L803.64,280.57 L803.8,282.28 L807.05,283.2 L814.74,279.07 L821.11,281.49 L824.24,280.29 L826.93,283.18 L836.55,282.09 L839.53,286.55 L851.61,286.33 L852.2,287.55 L848.67,288.46 L845.97,296.31 L861.2,302.57 L858.56,308.56 L858.64,314.95 L863.13,320.47 L862.65,324.05 L860.18,323.61 L858.37,325.88 L860.95,331.54 L858.61,332.0 L856.59,335.88 L857.83,339.38 L854.56,339.81 L850.59,345.52 L851.43,348.87 L845.09,349.72 L845.63,353.76 L841.95,352.72 L837.56,355.71 L839.27,358.09 L835.19,358.24 L828.26,363.0 L824.17,361.8 L824.84,365.74 L821.26,363.82 L816.98,366.19 L814.31,362.94 L814.18,368.83 L810.49,367.83 L811.58,372.31 L806.54,376.95 L815.88,379.52 L812.74,383.01 L817.28,384.92 L813.7,384.39 L811.53,386.16 L812.4,388.43 L816.5,386.7 L815.45,389.96 L817.21,392.26 L809.13,389.35 L805.61,384.95 L792.39,383.81 L789.31,381.43 L785.55,382.82 L784.86,378.94 L781.74,379.34 L776.86,375.76 L771.41,375.03 L768.96,372.23 Z"><title>Blora</title></path>
  <path id="pekalongan" data-name="Pekalongan" class="kab" fill="#C8B89A" stroke="#3B1F0C" stroke-width="0.8" d="M300.38,357.08 L289.11,361.97 L287.26,357.11 L284.85,356.11 L285.77,350.96 L280.39,344.91 L276.38,336.11 L277.32,331.75 L280.19,329.88 L274.39,313.8 L278.21,309.33 L278.33,299.33 L282.39,295.19 L295.8,289.95 L296.98,281.19 L301.47,279.24 L303.22,276.18 L301.94,273.31 L305.17,271.19 L322.51,272.89 L323.89,278.97 L321.15,278.31 L318.77,280.19 L320.38,281.81 L318.3,282.76 L317.95,288.55 L320.69,290.07 L322.19,288.75 L325.42,289.53 L324.73,290.64 L325.03,292.54 L326.01,292.82 L325.28,290.53 L327.07,290.52 L327.01,293.59 L334.58,299.16 L335.57,303.82 L339.65,303.94 L342.34,307.76 L345.86,305.99 L347.22,306.99 L349.92,313.92 L347.81,317.05 L350.09,322.7 L348.64,327.45 L344.5,329.97 L345.83,332.21 L353.44,332.73 L353.38,339.23 L360.97,345.58 L348.26,347.51 L341.03,352.56 L331.02,351.02 L328.57,346.08 L325.57,347.28 L319.17,345.97 L315.93,347.07 L309.47,354.55 L303.59,353.7 L300.38,357.08 Z"><title>Pekalongan</title></path>
  <path id="kota-pekalongan" data-name="Kota Pekalongan" class="kab" fill="#C8B89A" stroke="#3B1F0C" stroke-width="0.8" d="M325.42,289.53 L320.69,290.07 L317.92,288.44 L318.3,282.76 L320.38,281.81 L318.77,280.19 L321.15,278.31 L323.7,279.54 L322.9,273.96 L332.03,274.65 L336.77,277.09 L334.66,277.33 L336.91,280.81 L334.72,285.93 L332.28,286.75 L332.12,291.62 L327.65,292.31 L325.32,290.51 L326.01,292.82 L325.03,292.54 L325.42,289.53 Z"><title>Kota Pekalongan</title></path>
  <path id="rembang" data-name="Rembang" class="kab" fill="#C8B89A" stroke="#3B1F0C" stroke-width="0.8" d="M780.16,277.48 L771.33,277.35 L762.6,274.55 L760.53,270.25 L764.66,268.46 L757.45,261.14 L758.11,253.93 L754.53,251.34 L756.96,241.13 L754.59,236.59 L770.39,236.71 L781.59,239.8 L783.2,237.85 L784.25,240.1 L794.26,240.07 L816.8,231.51 L818.54,229.89 L817.88,226.24 L825.35,221.54 L829.9,224.24 L838.87,223.81 L844.6,225.77 L880.0,251.66 L878.19,255.5 L875.54,256.41 L873.98,253.75 L871.6,256.78 L873.62,262.38 L870.41,267.92 L864.68,268.47 L860.2,266.87 L857.12,285.16 L854.14,287.56 L848.52,285.64 L839.53,286.55 L836.55,282.09 L826.93,283.18 L824.24,280.29 L821.11,281.49 L814.74,279.07 L807.05,283.2 L803.8,282.28 L803.64,280.57 L799.99,282.53 L793.96,282.62 L785.79,281.44 L780.16,277.48 Z M795.64,235.31 L795.51,235.46 L795.54,235.29 L795.64,235.31 Z M761.32,231.97 L761.48,231.83 L761.59,231.98 L761.32,231.97 Z M769.95,228.83 L770.2,228.65 L770.02,229.02 L769.95,228.83 Z"><title>Rembang</title></path>
  <path id="sukoharjo" data-name="Sukoharjo" class="kab" fill="#C8B89A" stroke="#3B1F0C" stroke-width="0.8" d="M625.74,489.61 L625.16,492.6 L622.29,492.91 L619.31,488.55 L612.27,484.42 L616.37,478.87 L619.79,478.55 L627.37,468.59 L626.58,465.01 L628.44,463.41 L626.56,462.24 L629.05,459.82 L630.09,460.77 L630.48,460.59 L629.49,456.85 L632.74,456.41 L631.72,454.96 L633.82,455.11 L633.08,453.1 L635.37,451.86 L629.18,449.74 L627.97,451.33 L625.49,450.36 L626.51,447.52 L621.05,446.01 L620.05,442.05 L608.8,440.81 L615.34,431.84 L611.17,430.71 L611.71,429.09 L615.05,428.3 L624.23,430.96 L625.29,429.12 L627.5,429.88 L627.04,431.31 L631.1,434.08 L630.7,436.82 L636.06,435.84 L640.84,441.09 L646.53,440.07 L648.42,436.16 L652.27,434.87 L666.35,438.71 L664.46,445.01 L675.78,446.41 L676.05,458.02 L679.51,461.21 L677.78,461.04 L676.52,463.76 L672.73,482.86 L665.89,477.42 L658.39,477.21 L656.63,475.26 L656.97,476.55 L652.11,478.17 L649.85,491.37 L645.88,486.78 L638.27,485.33 L631.48,487.35 L631.55,491.1 L625.74,489.61 Z"><title>Sukoharjo</title></path>
  <path id="grobogan" data-name="Grobogan" class="kab" fill="#C8B89A" stroke="#3B1F0C" stroke-width="0.8" d="M606.15,361.39 L590.28,356.44 L583.54,358.11 L584.59,351.9 L582.41,350.97 L578.4,352.83 L572.53,349.63 L572.08,350.86 L568.36,349.18 L565.84,350.98 L563.37,346.84 L569.45,345.24 L570.55,343.05 L572.42,343.74 L575.64,333.94 L569.95,326.01 L573.88,322.85 L577.44,323.48 L579.7,318.93 L582.17,318.47 L587.72,309.43 L587.35,301.55 L596.7,300.87 L600.27,301.62 L599.35,303.23 L602.17,304.18 L600.72,308.89 L605.56,311.97 L599.96,316.71 L599.65,319.26 L606.34,311.17 L616.08,314.48 L625.25,311.98 L622.64,311.14 L625.6,311.3 L625.66,307.99 L628.83,307.49 L625.6,307.07 L628.02,304.77 L624.87,303.28 L628.42,301.56 L625.78,300.05 L629.06,298.94 L629.63,295.5 L633.48,297.31 L638.86,307.21 L640.83,306.16 L643.11,307.51 L645.25,305.04 L647.92,304.85 L649.64,307.02 L651.11,303.86 L657.18,300.44 L661.02,303.61 L664.51,303.15 L667.08,298.3 L671.56,300.92 L676.11,298.89 L680.13,301.04 L706.95,300.2 L713.92,298.48 L712.31,294.89 L716.85,291.2 L721.02,302.27 L736.82,303.45 L741.87,308.54 L749.12,312.12 L749.65,328.84 L752.51,329.04 L758.71,346.97 L756.04,357.87 L757.08,360.85 L751.51,364.49 L746.31,362.15 L744.63,362.66 L745.19,364.71 L739.12,366.67 L734.15,365.2 L730.54,366.66 L725.23,365.15 L723.73,362.95 L718.53,362.78 L712.36,364.35 L710.18,367.25 L701.2,367.15 L698.55,364.91 L692.35,365.84 L682.78,370.51 L670.85,369.62 L669.03,367.8 L668.34,370.26 L664.16,370.87 L661.57,368.76 L655.9,369.3 L654.02,366.8 L651.53,368.31 L646.53,366.45 L643.34,361.01 L647.48,355.82 L651.62,355.09 L646.07,351.79 L643.99,351.59 L633.74,361.23 L626.39,362.14 L631.53,350.74 L628.83,350.04 L629.13,348.58 L624.6,349.05 L626.73,346.85 L620.1,344.07 L621.78,340.58 L619.69,338.41 L613.02,345.83 L605.38,349.72 L606.11,353.32 L609.68,355.53 L606.5,357.6 L606.15,361.39 Z"><title>Grobogan</title></path>
  <path id="magelang" data-name="Magelang" class="kab" fill="#C8B89A" stroke="#3B1F0C" stroke-width="0.8" d="M450.45,449.21 L443.97,435.41 L441.9,434.53 L436.55,436.96 L434.68,435.72 L432.45,436.74 L432.27,433.09 L428.15,428.2 L430.3,415.79 L433.89,410.6 L432.41,402.11 L436.45,393.84 L452.62,394.59 L463.93,393.11 L467.85,394.51 L469.68,392.9 L474.8,395.04 L474.92,398.08 L477.1,393.17 L479.94,393.44 L480.68,390.98 L485.34,390.52 L485.99,393.19 L489.19,393.12 L494.95,388.85 L502.67,386.64 L505.64,380.01 L520.07,382.44 L520.73,386.84 L526.69,389.24 L529.72,400.94 L536.58,409.27 L534.73,414.44 L530.33,418.67 L524.53,419.42 L519.52,422.46 L531.41,424.29 L538.19,429.0 L534.43,432.48 L527.36,436.12 L516.14,445.85 L499.14,454.83 L490.64,466.25 L487.59,461.98 L488.42,452.68 L484.98,451.72 L481.56,454.27 L475.02,452.59 L471.62,454.41 L468.02,452.55 L455.78,453.68 L450.45,449.21 Z M480.55,420.88 L478.43,412.15 L479.39,405.16 L477.36,404.74 L474.19,407.65 L473.64,413.83 L470.63,418.16 L472.58,418.02 L471.47,419.53 L474.06,421.02 L480.55,420.88 Z"><title>Magelang</title></path>
  <path id="pemalang" data-name="Pemalang" class="kab" fill="#C8B89A" stroke="#3B1F0C" stroke-width="0.8" d="M231.12,354.27 L209.66,358.18 L201.87,363.08 L197.44,362.75 L200.46,360.02 L196.63,357.63 L196.11,345.51 L193.21,342.25 L195.16,339.65 L193.14,337.84 L200.9,336.21 L206.19,324.5 L217.39,318.96 L221.45,306.41 L227.3,304.48 L228.62,299.73 L229.88,300.95 L230.21,298.8 L233.85,297.39 L232.11,296.91 L233.21,292.68 L231.02,290.25 L237.12,282.58 L239.41,282.76 L240.51,278.68 L238.06,275.89 L245.97,275.81 L262.38,271.16 L274.26,264.94 L281.55,258.73 L282.2,260.51 L283.72,259.78 L285.16,255.68 L295.1,267.86 L305.23,271.4 L301.94,273.31 L303.22,276.18 L301.47,279.24 L296.98,281.19 L295.8,289.95 L282.39,295.19 L278.33,299.33 L278.21,309.33 L274.39,313.72 L280.18,329.58 L277.32,331.75 L276.38,336.11 L280.39,344.91 L285.77,350.96 L284.35,354.3 L287.81,359.2 L280.83,360.96 L272.89,357.46 L267.12,351.18 L266.12,344.55 L263.54,343.86 L254.27,352.48 L246.7,349.91 L236.76,354.73 L231.12,354.27 Z"><title>Pemalang</title></path>
  <path id="cilacap" data-name="Cilacap" class="kab" fill="#C8B89A" stroke="#3B1F0C" stroke-width="0.8" d="M106.17,464.14 L107.43,464.45 L107.59,465.15 L107.82,465.7 L108.89,466.62 L103.36,463.88 L105.59,464.14 L106.17,464.14 Z M82.84,464.47 L82.79,464.43 L82.86,464.44 L82.84,464.47 Z M104.64,461.91 L106.46,464.03 L98.37,461.09 L100.21,460.41 L101.74,460.7 L104.56,461.89 L104.64,461.91 Z M107.55,463.5 L105.9,462.09 L106.0,459.85 L106.37,461.43 L107.55,463.5 Z M105.53,461.8 L105.19,461.06 L105.44,461.1 L105.53,461.8 Z M92.57,461.0 L92.27,459.67 L93.59,459.95 L92.57,461.0 Z M94.58,460.95 L92.82,461.08 L94.92,459.54 L94.58,460.95 Z M104.53,459.14 L104.34,461.47 L101.69,460.62 L100.3,460.36 L97.14,460.71 L104.53,459.14 Z M91.22,460.76 L89.64,460.13 L92.43,459.45 L91.22,460.76 Z M90.01,459.42 L90.19,458.6 L92.52,458.71 L90.01,459.42 Z M94.91,460.92 L101.13,456.98 L104.57,459.07 L98.12,459.56 L94.91,460.92 Z M154.85,482.36 L154.78,482.36 L154.82,482.32 L154.85,482.36 Z M154.35,482.34 L154.35,482.3 L154.38,482.32 L154.35,482.34 Z M154.78,482.31 L154.73,482.3 L154.75,482.27 L154.78,482.31 Z M154.74,482.22 L154.76,482.25 L154.7,482.26 L154.74,482.22 Z M118.16,476.83 L118.07,476.89 L118.05,476.85 L118.16,476.83 Z M87.18,462.49 L86.13,460.24 L92.4,461.41 L97.28,461.01 L107.34,466.78 L113.82,467.11 L117.19,466.59 L120.25,467.02 L121.07,466.38 L121.4,467.84 L123.18,469.31 L123.73,468.95 L123.6,467.66 L124.74,469.54 L131.7,468.94 L137.6,474.2 L148.7,479.4 L153.73,478.32 L155.54,481.66 L154.11,482.27 L153.94,483.7 L152.39,483.8 L147.69,481.26 L146.56,482.5 L140.61,481.72 L134.99,479.06 L104.54,473.95 L90.76,472.56 L86.78,474.37 L85.81,472.61 L82.87,472.86 L86.85,467.22 L82.26,465.24 L87.18,462.49 Z M121.71,467.65 L122.91,467.98 L123.25,468.92 L121.71,467.65 Z M109.36,464.25 L111.56,465.64 L112.96,466.75 L108.08,465.91 L107.64,464.68 L108.45,464.64 L109.36,464.25 Z M106.67,463.33 L107.65,464.6 L106.53,463.38 L106.67,463.33 Z M110.37,463.73 L110.94,463.45 L110.74,464.04 L110.37,463.73 Z M72.64,447.47 L68.23,445.16 L70.62,440.6 L73.44,440.43 L72.8,434.93 L74.53,433.08 L69.16,420.74 L64.26,415.33 L62.9,410.38 L65.91,404.2 L59.39,400.52 L58.72,397.21 L55.89,396.97 L53.0,387.63 L45.23,383.0 L44.53,384.94 L37.18,384.71 L36.87,385.96 L35.44,384.56 L31.7,386.04 L29.61,384.71 L27.53,385.87 L24.93,382.22 L20.68,382.48 L22.3,375.53 L20.0,371.91 L28.15,361.7 L26.63,360.6 L28.05,356.28 L26.89,353.53 L22.21,351.56 L21.72,345.66 L41.7,338.31 L48.05,342.47 L58.26,341.29 L58.66,344.65 L64.34,347.37 L66.12,351.05 L80.12,351.79 L83.41,354.33 L91.1,352.85 L91.88,359.14 L104.69,361.9 L104.83,368.27 L109.41,368.26 L113.57,371.64 L117.2,371.89 L117.42,375.19 L123.14,379.37 L127.1,376.8 L129.5,382.81 L135.21,382.48 L133.09,385.82 L126.91,388.72 L129.56,389.74 L127.1,391.5 L128.34,393.19 L124.79,394.14 L124.92,401.22 L117.42,407.67 L111.45,408.47 L114.17,413.44 L119.14,411.17 L129.74,412.97 L132.03,416.56 L129.84,418.78 L134.35,423.87 L142.99,425.9 L142.72,429.76 L148.47,429.52 L153.74,433.15 L157.75,432.35 L159.96,436.17 L171.7,438.12 L183.8,437.44 L187.53,435.79 L188.78,431.27 L191.32,430.82 L200.68,434.25 L210.93,440.0 L215.18,440.44 L213.54,446.74 L235.91,451.66 L240.4,451.18 L239.88,454.09 L248.88,458.02 L245.68,461.82 L249.84,463.97 L247.63,468.15 L249.55,470.11 L207.39,463.8 L181.74,462.3 L180.37,462.45 L180.15,463.3 L179.89,463.68 L177.88,464.62 L180.18,462.57 L178.37,463.59 L177.92,462.11 L171.18,460.88 L153.22,466.38 L148.98,469.98 L147.73,476.53 L146.15,476.55 L132.81,467.59 L124.82,469.26 L124.1,467.6 L121.25,466.2 L113.5,466.9 L110.99,463.2 L107.77,463.56 L105.99,458.38 L103.28,455.44 L98.76,455.04 L92.84,458.35 L83.86,458.0 L82.87,455.55 L78.54,454.46 L72.9,449.7 L72.64,447.47 Z"><title>Cilacap</title></path>
  <path id="kudus" data-name="Kudus" class="kab" fill="#C8B89A" stroke="#3B1F0C" stroke-width="0.8" d="M639.71,293.22 L637.71,302.46 L633.48,297.31 L628.03,294.7 L631.3,292.76 L629.4,291.89 L632.48,291.63 L631.66,287.06 L644.71,273.34 L634.8,270.62 L629.75,263.23 L624.07,260.69 L626.63,255.25 L633.37,251.7 L634.99,252.64 L640.11,250.28 L643.5,252.17 L645.63,248.0 L641.63,246.84 L642.95,244.25 L641.14,241.19 L646.22,240.12 L644.62,236.99 L649.99,231.16 L652.5,222.37 L660.17,220.88 L663.58,222.89 L662.41,225.88 L665.4,227.87 L669.84,237.59 L672.62,238.97 L673.32,241.83 L671.74,244.13 L669.89,242.74 L669.76,247.87 L674.17,247.43 L675.23,251.99 L680.22,252.05 L684.05,269.5 L676.06,275.24 L658.04,277.18 L658.17,285.81 L651.21,284.78 L647.63,292.59 L639.71,293.22 Z"><title>Kudus</title></path>
  <path id="banyumas" data-name="Banyumas" class="kab" fill="#C8B89A" stroke="#3B1F0C" stroke-width="0.8" d="M171.7,438.12 L158.41,435.54 L157.75,432.35 L153.74,433.15 L148.47,429.52 L142.72,429.76 L142.99,425.9 L134.35,423.87 L129.9,418.9 L132.03,416.56 L129.74,412.97 L119.14,411.17 L114.24,413.48 L111.42,408.52 L117.42,407.67 L124.92,401.22 L124.79,394.14 L128.34,393.19 L127.1,391.5 L129.56,389.74 L126.91,388.72 L133.09,385.82 L135.16,382.53 L143.2,382.56 L144.82,381.13 L146.49,382.57 L149.51,380.57 L152.49,383.64 L151.33,386.26 L154.79,383.4 L159.48,383.35 L165.67,373.54 L174.37,373.89 L175.58,370.91 L177.61,370.67 L175.56,369.13 L179.5,369.16 L182.1,367.11 L187.08,368.17 L197.39,362.69 L203.14,362.55 L211.71,370.27 L227.54,399.53 L233.27,403.98 L232.67,406.89 L235.35,410.13 L232.79,412.88 L231.37,411.28 L229.9,415.85 L233.65,416.5 L234.33,418.26 L235.66,415.2 L239.59,415.45 L242.17,419.07 L241.7,423.67 L246.67,424.75 L252.61,428.94 L260.56,427.93 L260.51,430.93 L255.72,435.44 L264.22,446.96 L261.06,450.32 L258.32,449.57 L255.61,453.2 L248.33,452.46 L246.38,457.1 L245.18,455.19 L239.88,454.09 L240.31,451.14 L235.91,451.66 L213.54,446.74 L215.18,440.44 L210.93,440.0 L191.56,430.88 L188.78,431.27 L187.53,435.79 L183.8,437.44 L171.7,438.12 Z"><title>Banyumas</title></path>
  <path id="klaten" data-name="Klaten" class="kab" fill="#C8B89A" stroke="#3B1F0C" stroke-width="0.8" d="M568.31,486.21 L561.57,486.87 L555.52,480.23 L550.96,479.84 L544.57,446.18 L540.88,432.07 L538.23,428.97 L540.85,428.54 L546.15,431.49 L550.64,438.19 L559.34,442.96 L557.12,444.23 L561.62,448.15 L565.26,448.01 L564.65,445.96 L567.24,444.47 L565.6,443.0 L573.3,438.22 L579.86,439.63 L580.7,435.29 L591.97,439.15 L605.51,439.37 L620.04,442.05 L621.05,446.01 L626.51,447.52 L625.49,450.36 L627.97,451.33 L629.18,449.74 L635.34,451.79 L633.08,453.1 L633.82,455.11 L631.72,454.96 L632.74,456.41 L629.49,456.85 L630.48,460.59 L629.05,459.82 L626.56,462.24 L628.44,463.41 L626.58,465.01 L627.37,468.59 L619.79,478.55 L616.39,478.86 L613.37,482.33 L610.57,488.45 L603.05,488.74 L600.65,487.33 L600.3,484.21 L596.47,488.41 L594.56,485.62 L587.72,488.05 L581.81,486.94 L580.66,488.85 L576.75,489.26 L576.85,487.93 L574.02,488.65 L575.73,484.87 L570.66,483.22 L567.78,484.41 L568.31,486.21 Z"><title>Klaten</title></path>
  <path id="brebes" data-name="Brebes" class="kab" fill="#C8B89A" stroke="#3B1F0C" stroke-width="0.8" d="M91.1,352.85 L82.49,354.23 L80.12,351.79 L66.12,351.05 L64.34,347.37 L57.61,343.02 L66.64,333.01 L77.96,332.58 L81.05,328.38 L79.92,325.82 L83.5,319.7 L80.44,315.81 L84.76,314.17 L85.65,311.08 L84.74,307.76 L75.42,303.49 L76.91,293.49 L73.99,289.17 L77.87,284.86 L76.3,283.65 L79.08,283.45 L81.09,278.84 L82.82,281.08 L87.59,277.44 L93.71,269.26 L93.91,262.62 L95.89,262.11 L94.44,260.5 L94.65,259.17 L95.38,258.6 L100.21,266.2 L105.71,263.5 L122.43,267.83 L127.36,267.58 L133.28,263.25 L139.24,263.19 L140.91,261.49 L145.2,263.15 L146.16,262.09 L146.1,260.67 L147.5,258.34 L148.44,260.9 L153.84,262.55 L152.11,258.64 L156.35,259.77 L160.33,252.76 L159.52,259.69 L163.56,254.99 L162.56,258.31 L163.66,256.66 L165.41,255.92 L163.86,256.94 L165.52,256.23 L164.01,257.53 L165.83,257.96 L159.67,264.01 L169.8,271.05 L162.56,278.95 L162.25,287.51 L164.36,290.68 L161.15,300.85 L162.38,305.78 L160.05,305.69 L159.88,301.5 L156.44,301.57 L154.21,304.07 L150.79,303.46 L146.86,312.58 L148.54,317.12 L146.14,317.96 L142.92,316.32 L138.42,320.7 L133.37,320.68 L137.89,328.65 L137.53,332.14 L132.89,335.55 L128.44,335.78 L132.43,341.06 L135.23,338.12 L139.78,337.64 L157.29,340.86 L157.74,335.06 L161.67,335.9 L164.92,340.33 L157.07,348.71 L157.58,350.22 L172.87,354.73 L182.24,361.31 L189.68,359.22 L195.8,363.33 L187.08,368.17 L182.1,367.11 L179.5,369.16 L175.56,369.13 L177.61,370.67 L175.58,370.91 L174.37,373.89 L165.67,373.54 L159.48,383.35 L154.79,383.4 L151.22,386.25 L152.49,383.64 L149.51,380.57 L146.32,382.59 L144.82,381.13 L143.2,382.56 L129.5,382.81 L127.1,376.8 L123.14,379.37 L117.42,375.19 L117.2,371.89 L113.45,371.58 L112.46,369.15 L104.59,368.04 L104.69,361.9 L91.88,359.14 L91.1,352.85 Z"><title>Brebes</title></path>
  <path id="pati" data-name="Pati" class="kab" fill="#C8B89A" stroke="#3B1F0C" stroke-width="0.8" d="M657.48,300.4 L649.64,307.02 L647.92,304.85 L645.03,305.08 L643.16,307.5 L640.83,306.16 L638.86,307.21 L636.2,303.17 L638.8,301.68 L639.59,293.28 L647.63,292.59 L651.21,284.78 L658.17,285.81 L658.04,277.18 L676.06,275.24 L684.05,269.49 L680.22,252.05 L675.23,251.99 L674.17,247.43 L671.37,248.02 L669.76,247.87 L669.89,242.74 L671.74,244.13 L673.32,241.83 L672.62,238.97 L669.84,237.59 L665.4,227.87 L662.33,225.69 L666.22,217.07 L664.6,213.11 L667.81,203.46 L665.22,199.99 L666.38,194.31 L671.0,193.45 L673.1,190.66 L675.41,191.06 L683.08,184.62 L683.83,177.14 L681.95,174.2 L702.6,177.72 L706.68,196.4 L722.52,222.56 L729.78,228.91 L743.25,231.75 L754.59,236.59 L756.96,241.13 L754.53,251.34 L758.11,253.93 L757.47,261.18 L764.66,268.46 L760.53,270.25 L762.85,274.18 L757.05,276.16 L752.19,273.13 L751.24,277.56 L746.07,278.79 L745.63,283.76 L735.01,286.52 L729.81,284.41 L727.79,289.13 L722.65,286.56 L719.98,287.68 L712.31,294.89 L713.92,298.48 L699.43,300.83 L680.13,301.04 L676.11,298.89 L669.97,300.78 L667.08,298.3 L664.51,303.15 L661.02,303.61 L657.48,300.4 Z"><title>Pati</title></path>
  <path id="wonosobo" data-name="Wonosobo" class="kab" fill="#C8B89A" stroke="#3B1F0C" stroke-width="0.8" d="M373.54,434.45 L359.87,444.95 L351.13,443.0 L344.31,433.41 L342.15,433.12 L344.25,431.79 L345.07,426.69 L353.97,423.92 L348.88,418.87 L350.61,414.97 L348.11,407.62 L352.22,405.34 L357.86,408.01 L370.21,407.68 L370.27,402.34 L347.66,395.13 L356.57,388.82 L360.29,380.82 L372.26,371.5 L376.29,361.33 L380.42,358.18 L390.46,357.0 L391.58,352.12 L394.87,349.15 L414.54,365.72 L413.36,370.34 L415.07,374.87 L421.28,379.62 L424.74,385.48 L436.45,393.84 L432.41,402.11 L433.89,410.6 L430.3,415.79 L428.64,427.51 L425.35,427.14 L425.79,431.49 L419.98,434.68 L420.76,439.12 L415.32,439.98 L414.81,436.72 L410.3,437.05 L407.38,433.9 L408.86,427.62 L399.92,427.39 L388.99,423.71 L383.34,427.22 L381.73,425.7 L379.76,426.78 L381.08,430.52 L373.54,434.45 Z"><title>Wonosobo</title></path>
  <path id="kota-surakarta" data-name="Kota Surakarta" class="kab" fill="#C8B89A" stroke="#3B1F0C" stroke-width="0.8" d="M640.68,441.05 L636.06,435.84 L630.7,436.82 L631.1,434.08 L627.52,429.92 L634.44,430.72 L638.96,424.69 L640.22,426.21 L651.5,427.36 L651.35,430.95 L654.44,430.43 L652.03,435.45 L648.42,436.16 L644.58,441.1 L640.68,441.05 Z"><title>Kota Surakarta</title></path>
  <path id="kota-magelang" data-name="Kota Magelang" class="kab" fill="#C8B89A" stroke="#3B1F0C" stroke-width="0.8" d="M480.99,420.67 L472.7,420.62 L472.58,418.02 L470.63,418.16 L473.64,413.83 L474.19,407.65 L477.36,404.74 L479.39,405.16 L478.43,412.15 L481.21,418.23 L480.99,420.67 Z"><title>Kota Magelang</title></path>
  <path id="wonogiri" data-name="Wonogiri" class="kab" fill="#C8B89A" stroke="#3B1F0C" stroke-width="0.8" d="M662.96,580.0 L645.09,578.15 L646.15,572.76 L644.37,570.47 L642.39,570.32 L641.72,573.33 L639.31,572.92 L639.7,566.99 L643.41,565.35 L643.87,563.12 L639.54,563.45 L636.54,569.01 L631.76,566.65 L632.41,557.36 L623.36,538.09 L626.58,528.4 L627.42,510.74 L631.5,499.38 L631.48,487.35 L637.28,485.3 L644.51,486.28 L649.85,491.37 L652.98,476.79 L656.97,476.55 L656.73,475.25 L658.39,477.21 L663.8,476.6 L672.73,482.86 L674.28,473.75 L679.22,472.44 L683.43,476.75 L680.69,479.84 L681.73,480.9 L684.91,478.73 L690.24,479.92 L695.43,478.21 L702.99,483.5 L704.26,478.19 L709.64,477.72 L711.99,475.7 L716.02,476.45 L720.49,473.21 L721.02,475.75 L725.86,471.37 L725.71,469.6 L723.81,469.78 L729.42,466.87 L735.98,468.51 L742.68,467.38 L748.51,469.8 L755.23,476.13 L757.23,473.92 L760.72,475.17 L764.95,473.24 L769.61,474.15 L767.68,483.85 L771.85,487.69 L774.2,492.56 L773.33,495.66 L776.63,498.96 L771.05,501.15 L771.87,504.66 L764.94,516.72 L759.09,520.18 L753.95,520.84 L751.3,516.7 L742.84,517.62 L743.33,515.08 L740.67,513.41 L732.71,514.83 L728.82,518.18 L730.03,521.73 L724.84,525.6 L727.39,537.17 L722.38,541.85 L722.62,545.74 L715.33,546.69 L712.18,542.02 L708.47,546.21 L698.19,550.41 L691.65,548.81 L685.67,550.17 L677.58,546.29 L667.13,558.52 L665.1,558.66 L661.64,569.96 L662.96,580.0 Z"><title>Wonogiri</title></path>
  <path id="karanganyar" data-name="Karanganyar" class="kab" fill="#C8B89A" stroke="#3B1F0C" stroke-width="0.8" d="M675.78,446.41 L664.46,445.01 L666.35,438.71 L652.27,434.87 L654.44,430.43 L651.35,430.95 L651.5,427.36 L640.22,426.21 L636.77,410.52 L645.89,410.52 L648.44,413.33 L653.05,413.7 L655.31,417.25 L673.76,418.59 L696.48,427.37 L697.03,426.0 L703.95,428.16 L701.51,422.3 L706.02,421.86 L707.87,419.02 L711.86,419.1 L711.99,425.34 L715.7,426.77 L720.96,426.83 L720.46,425.11 L724.91,422.38 L727.65,422.88 L730.96,425.45 L732.15,433.57 L736.53,440.06 L744.29,444.48 L741.35,454.3 L744.0,458.75 L740.38,462.49 L740.97,467.56 L735.98,468.51 L729.42,466.87 L723.81,469.78 L725.71,469.6 L725.86,471.37 L721.02,475.75 L720.49,473.21 L716.02,476.45 L711.99,475.7 L709.64,477.72 L704.26,478.19 L702.99,483.5 L695.43,478.21 L690.24,479.92 L684.91,478.73 L681.73,480.9 L680.69,479.84 L683.43,476.75 L681.19,476.23 L681.89,474.1 L679.22,472.44 L674.28,473.75 L676.54,463.69 L677.78,461.04 L679.51,461.21 L676.05,458.02 L675.78,446.41 Z M635.73,427.27 L634.44,430.72 L625.29,429.12 L624.23,430.96 L618.44,428.36 L610.37,428.78 L610.61,427.0 L621.56,424.97 L632.92,425.69 L635.73,427.27 Z"><title>Karanganyar</title></path>
  <path id="temanggung" data-name="Temanggung" class="kab" fill="#C8B89A" stroke="#3B1F0C" stroke-width="0.8" d="M435.91,393.93 L424.74,385.48 L421.28,379.62 L415.07,374.87 L413.36,370.34 L414.54,365.72 L398.38,352.52 L407.93,349.41 L432.49,333.85 L437.08,334.3 L449.04,328.04 L464.18,329.83 L464.7,325.56 L468.9,325.1 L467.6,330.05 L469.13,330.88 L461.47,332.53 L459.75,335.47 L455.84,335.28 L454.59,338.17 L466.8,341.23 L468.89,345.92 L474.64,348.88 L485.25,349.48 L486.5,350.83 L484.19,353.82 L490.94,360.46 L490.02,364.16 L493.12,364.24 L496.83,368.25 L507.36,373.82 L502.22,376.88 L505.89,377.84 L503.51,381.78 L504.53,384.65 L489.19,393.12 L485.99,393.19 L485.34,390.52 L480.55,391.04 L479.94,393.44 L477.1,393.17 L474.92,398.08 L474.8,395.04 L469.68,392.9 L467.85,394.51 L463.93,393.11 L452.62,394.59 L435.91,393.93 Z"><title>Temanggung</title></path>
  <path id="kota-semarang" data-name="Kota Semarang" class="kab" fill="#C8B89A" stroke="#3B1F0C" stroke-width="0.8" d="M510.74,329.45 L502.39,331.34 L499.79,330.01 L498.56,321.68 L490.56,316.33 L490.05,311.89 L491.47,309.68 L494.45,309.34 L493.33,304.93 L496.99,302.78 L494.2,300.46 L498.28,298.05 L495.9,296.73 L496.72,295.17 L498.89,297.26 L500.56,294.32 L501.66,293.72 L499.25,297.67 L503.55,296.28 L505.54,299.96 L508.05,298.31 L510.95,299.43 L510.22,298.64 L512.7,297.63 L511.15,299.36 L515.01,300.21 L514.58,296.85 L511.94,296.47 L520.16,294.97 L522.82,296.11 L524.42,294.66 L527.72,295.83 L529.07,294.78 L529.03,293.89 L529.24,293.8 L532.42,297.08 L532.27,292.61 L535.78,296.13 L535.5,294.51 L536.46,295.42 L537.92,293.39 L537.28,295.67 L541.66,296.52 L543.73,294.71 L542.42,292.12 L544.76,294.24 L551.06,295.15 L550.54,296.95 L553.43,296.32 L554.65,302.47 L550.52,307.82 L553.74,309.2 L553.0,312.93 L548.6,313.68 L548.11,319.16 L553.49,322.23 L546.81,326.87 L541.99,324.53 L539.67,327.67 L532.0,329.12 L530.14,331.62 L524.64,333.07 L519.47,332.17 L519.25,328.36 L517.27,331.69 L513.55,330.97 L511.11,326.21 L510.74,329.45 Z M537.37,293.39 L537.75,293.43 L537.59,293.83 L537.37,293.39 Z"><title>Kota Semarang</title></path>
  <path id="tegal" data-name="Tegal" class="kab" fill="#C8B89A" stroke="#3B1F0C" stroke-width="0.8" d="M165.74,351.81 L162.29,352.4 L157.04,349.0 L164.79,340.72 L162.11,336.08 L158.53,334.95 L157.74,335.06 L156.88,340.93 L151.88,338.73 L146.77,339.49 L144.79,337.73 L142.13,339.04 L139.78,337.64 L135.23,338.12 L132.43,341.06 L128.43,335.66 L132.89,335.55 L137.53,332.14 L137.89,328.65 L133.37,320.68 L138.42,320.7 L142.92,316.32 L146.14,317.96 L148.54,317.12 L146.86,312.58 L150.79,303.46 L154.21,304.07 L156.44,301.57 L159.88,301.5 L160.05,305.69 L162.38,305.78 L161.15,300.85 L164.36,290.68 L161.88,282.82 L168.29,281.98 L174.14,284.33 L177.53,283.47 L178.23,281.2 L181.99,281.92 L186.29,272.02 L194.58,275.71 L214.22,278.33 L225.1,278.31 L236.04,275.9 L240.0,277.0 L239.41,282.76 L237.12,282.58 L231.02,290.25 L233.21,292.68 L232.11,296.91 L233.96,297.24 L230.21,298.8 L229.88,300.95 L228.62,299.73 L227.3,304.48 L221.25,306.64 L217.39,318.96 L206.19,324.5 L200.83,336.27 L193.14,337.84 L195.16,339.65 L193.21,342.25 L196.11,345.51 L196.63,357.63 L200.46,360.02 L195.79,363.34 L189.36,359.18 L182.87,361.51 L165.74,351.81 Z"><title>Tegal</title></path>
  <path id="sragen" data-name="Sragen" class="kab" fill="#C8B89A" stroke="#3B1F0C" stroke-width="0.8" d="M652.47,413.83 L642.22,409.84 L633.68,410.86 L627.42,406.33 L630.62,404.59 L627.03,401.26 L628.02,395.46 L636.12,390.08 L631.83,388.96 L635.46,385.7 L636.39,380.86 L633.5,372.28 L636.15,366.44 L646.15,366.23 L651.53,368.31 L654.02,366.8 L655.9,369.3 L661.57,368.76 L664.22,370.88 L668.34,370.26 L669.03,367.8 L670.85,369.62 L682.78,370.51 L692.35,365.84 L698.55,364.91 L699.13,366.66 L706.23,368.04 L718.53,362.78 L723.73,362.95 L725.32,365.19 L731.14,366.63 L727.21,374.15 L732.95,377.66 L729.28,381.95 L730.21,390.09 L722.84,400.55 L725.64,410.95 L727.98,411.95 L727.43,416.03 L732.24,419.62 L730.96,425.45 L725.37,422.19 L720.46,425.11 L720.96,426.83 L712.69,425.95 L711.86,419.1 L707.87,419.02 L706.02,421.86 L701.51,422.3 L703.95,428.16 L697.03,426.0 L696.48,427.37 L673.76,418.59 L655.31,417.25 L652.47,413.83 Z"><title>Sragen</title></path>
  <path id="kebumen" data-name="Kebumen" class="kab" fill="#C8B89A" stroke="#3B1F0C" stroke-width="0.8" d="M254.54,482.3 L254.69,482.35 L254.65,482.43 L254.54,482.3 Z M254.53,481.99 L254.53,481.97 L254.54,481.99 L254.53,481.99 Z M254.49,481.8 L254.43,481.87 L254.48,481.79 L254.49,481.8 Z M254.34,481.81 L254.33,481.86 L254.31,481.8 L254.34,481.81 Z M248.95,471.88 L248.97,471.85 L248.97,471.87 L248.95,471.88 Z M270.17,477.96 L261.73,479.91 L260.89,481.84 L257.37,480.53 L254.84,482.0 L254.2,479.76 L248.11,477.35 L249.58,469.92 L247.63,468.15 L249.84,463.97 L245.68,461.82 L248.92,458.49 L245.88,457.32 L248.33,452.46 L255.61,453.2 L258.32,449.57 L261.06,450.32 L264.22,446.96 L255.72,435.44 L260.55,430.87 L261.14,426.22 L273.95,423.75 L278.35,420.46 L291.28,424.83 L293.03,422.32 L296.11,421.82 L302.83,423.24 L309.99,420.67 L316.85,414.95 L318.98,418.55 L329.52,420.51 L347.94,407.48 L349.11,408.26 L350.61,414.97 L348.88,418.87 L353.93,424.04 L345.07,426.69 L342.16,433.2 L344.31,433.41 L351.73,443.25 L361.77,444.89 L365.2,442.57 L365.26,449.31 L360.78,452.8 L363.39,458.15 L360.61,463.74 L361.92,466.81 L369.54,468.34 L370.0,470.03 L371.98,481.37 L367.69,494.37 L308.35,482.74 L270.17,477.96 Z"><title>Kebumen</title></path>
  <path id="kota-salatiga" data-name="Kota Salatiga" class="kab" fill="#C8B89A" stroke="#3B1F0C" stroke-width="0.8" d="M557.3,393.94 L551.14,395.03 L550.16,391.98 L546.57,391.48 L546.56,385.91 L545.07,385.96 L546.61,377.55 L543.97,373.98 L548.82,371.51 L550.19,372.9 L552.43,372.08 L553.86,375.14 L559.41,372.77 L557.81,379.21 L562.87,386.79 L560.95,389.34 L557.45,388.82 L555.7,392.24 L557.3,393.94 Z"><title>Kota Salatiga</title></path>
  <path id="semarang" data-name="Semarang" class="kab" fill="#C8B89A" stroke="#3B1F0C" stroke-width="0.8" d="M575.16,408.61 L574.52,409.23 L573.97,409.15 L575.16,408.61 Z M536.56,409.26 L529.72,400.94 L526.46,388.99 L520.73,386.84 L519.97,382.4 L505.64,380.01 L505.85,377.73 L502.22,376.88 L507.36,373.82 L496.83,368.25 L493.12,364.24 L490.02,364.16 L490.94,360.46 L484.19,353.82 L486.5,350.83 L491.79,351.86 L494.24,349.46 L499.85,351.09 L516.57,346.68 L510.38,342.05 L512.99,337.8 L511.76,330.74 L517.27,331.69 L519.25,328.36 L519.47,332.17 L524.7,333.06 L530.14,331.62 L532.0,329.12 L539.67,327.67 L541.99,324.53 L553.13,328.85 L552.06,331.82 L554.69,334.78 L561.89,336.76 L564.85,335.97 L573.47,341.35 L572.42,343.74 L570.55,343.05 L569.45,345.24 L563.37,346.84 L565.84,350.98 L568.44,349.18 L572.08,350.86 L572.53,349.63 L575.4,352.28 L577.38,351.22 L578.4,352.83 L581.11,350.95 L584.59,351.9 L583.54,358.11 L587.24,358.78 L590.82,366.46 L587.64,367.79 L587.25,371.41 L584.5,370.77 L580.61,372.8 L580.54,378.14 L583.02,382.52 L592.56,380.3 L589.48,383.31 L590.62,390.53 L586.97,392.88 L590.23,394.83 L591.21,398.5 L586.6,409.44 L594.01,407.92 L588.43,412.19 L595.82,413.62 L597.51,418.98 L581.11,417.57 L574.77,411.58 L576.54,411.35 L575.98,407.92 L571.27,406.98 L575.88,406.17 L579.04,409.17 L579.84,407.48 L576.81,406.74 L578.19,405.91 L573.94,402.94 L572.63,405.58 L571.12,403.31 L569.13,408.38 L563.87,404.87 L557.98,406.14 L556.31,401.65 L557.68,400.77 L555.18,398.63 L553.32,399.98 L547.95,397.75 L543.46,399.2 L536.56,409.26 Z M559.44,372.85 L556.07,375.12 L549.12,371.54 L543.97,373.98 L546.61,377.55 L544.74,383.53 L546.54,391.43 L550.16,391.98 L551.14,395.03 L557.3,393.94 L555.7,392.24 L557.45,388.82 L562.79,388.08 L560.67,385.23 L561.34,382.23 L557.81,379.21 L559.44,372.85 Z"><title>Semarang</title></path>
  <path id="kota-tegal" data-name="Kota Tegal" class="kab" fill="#C8B89A" stroke="#3B1F0C" stroke-width="0.8" d="M175.04,284.18 L162.75,282.08 L164.25,275.26 L170.14,270.91 L177.35,273.59 L177.33,271.75 L178.32,273.09 L185.96,271.93 L182.08,281.86 L178.23,281.2 L175.04,284.18 Z"><title>Kota Tegal</title></path>
  <path id="jepara" data-name="Jepara" class="kab" fill="#C8B89A" stroke="#3B1F0C" stroke-width="0.8" d="M528.86,57.59 L527.48,57.32 L528.79,55.85 L528.86,57.59 Z M510.13,57.01 L510.15,57.25 L509.95,56.92 L510.13,57.01 Z M532.97,55.02 L534.95,58.42 L531.94,56.38 L532.97,55.02 Z M513.52,53.36 L513.96,54.36 L513.13,54.73 L513.52,53.36 Z M479.64,50.58 L479.51,50.97 L479.16,50.8 L479.64,50.58 Z M482.1,47.51 L481.65,47.93 L481.62,47.49 L482.1,47.51 Z M519.87,44.05 L520.01,43.63 L520.27,43.5 L519.87,44.05 Z M469.24,39.54 L467.87,41.11 L465.74,40.41 L467.6,38.87 L469.24,39.54 Z M519.16,37.61 L518.86,38.29 L518.41,38.38 L519.16,37.61 Z M460.95,37.12 L460.92,36.57 L461.13,36.56 L460.95,37.12 Z M511.37,36.02 L510.1,35.89 L511.22,35.4 L511.37,36.02 Z M481.58,29.21 L480.59,29.97 L480.43,29.95 L481.58,29.21 Z M484.74,20.0 L486.12,26.57 L483.47,28.21 L479.66,22.62 L484.74,20.0 Z M467.06,22.66 L468.7,23.24 L468.73,23.88 L467.06,22.66 Z M528.5,21.12 L528.05,24.48 L526.77,21.6 L528.5,21.12 Z M526.74,21.45 L526.41,21.31 L526.63,21.17 L526.74,21.45 Z M528.74,21.05 L528.71,21.2 L528.66,21.02 L528.74,21.05 Z M587.18,241.45 L581.87,245.03 L579.08,244.97 L585.58,241.35 L593.39,228.99 L591.12,221.16 L595.23,219.06 L595.78,216.11 L592.66,213.48 L595.62,213.49 L597.59,211.01 L592.81,207.16 L598.4,203.93 L598.6,201.71 L601.84,201.98 L603.41,199.25 L603.17,197.44 L599.55,196.97 L598.27,194.98 L605.61,193.96 L605.24,191.79 L611.17,188.15 L613.04,183.62 L631.46,177.63 L639.68,177.5 L645.99,173.45 L667.87,172.49 L683.55,175.44 L681.79,186.28 L671.0,193.45 L666.38,194.31 L665.22,199.99 L667.81,203.46 L665.28,207.28 L666.22,217.07 L663.58,222.89 L660.02,220.85 L652.59,222.29 L649.99,231.16 L644.62,236.99 L646.22,240.12 L641.14,241.19 L642.95,244.25 L641.63,246.84 L645.63,248.0 L643.5,252.17 L640.11,250.28 L634.99,252.64 L633.37,251.7 L626.63,255.25 L624.07,260.69 L613.53,259.43 L609.46,260.83 L606.69,254.87 L599.0,253.99 L599.62,243.96 L587.18,241.45 Z M587.77,210.95 L588.89,211.99 L587.51,211.31 L587.77,210.95 Z M669.28,167.85 L668.3,167.87 L669.35,167.58 L669.28,167.85 Z M540.92,53.09 L540.91,53.14 L540.85,53.17 L540.92,53.09 Z M576.81,50.65 L575.2,50.54 L575.11,50.13 L576.81,50.65 Z M544.36,43.12 L547.09,48.88 L544.46,49.02 L543.42,50.99 L538.69,50.87 L539.15,56.83 L534.38,55.08 L534.58,50.03 L528.76,45.62 L544.36,43.12 Z M581.24,45.86 L582.82,47.85 L580.95,51.71 L581.24,45.86 Z M577.07,46.42 L576.51,46.92 L575.93,46.9 L577.07,46.42 Z M555.45,41.71 L555.5,41.16 L555.69,41.07 L555.45,41.71 Z M541.84,39.13 L541.88,39.23 L541.81,39.26 L541.84,39.13 Z M555.74,38.84 L555.23,38.6 L555.44,38.34 L555.74,38.84 Z M549.24,30.02 L546.34,35.09 L551.86,40.69 L548.54,42.01 L549.07,44.99 L543.36,42.39 L547.66,39.29 L545.77,36.14 L546.8,39.88 L544.22,39.5 L544.67,37.71 L542.56,39.36 L542.61,36.78 L541.5,39.69 L540.62,40.3 L539.46,39.73 L549.24,30.02 Z M569.94,36.25 L568.17,37.45 L568.38,37.13 L569.94,36.25 Z M540.69,36.22 L541.33,36.22 L541.34,36.35 L540.69,36.22 Z M574.6,34.31 L574.6,33.94 L574.94,34.34 L574.6,34.31 Z M555.96,32.74 L557.27,33.0 L557.03,33.42 L555.96,32.74 Z"><title>Jepara</title></path>
  <path id="batang" data-name="Batang" class="kab" fill="#C8B89A" stroke="#3B1F0C" stroke-width="0.8" d="M353.38,332.69 L345.83,332.21 L344.4,329.66 L348.64,327.45 L350.09,322.7 L347.81,317.05 L349.92,313.92 L347.22,306.99 L345.86,305.99 L342.34,307.76 L339.65,303.94 L335.57,303.82 L334.58,299.16 L326.52,292.69 L332.96,290.42 L332.28,286.75 L334.72,285.93 L336.91,280.81 L334.66,277.33 L345.27,279.63 L347.06,278.63 L347.47,280.04 L361.05,282.59 L364.42,284.81 L381.95,288.18 L396.08,287.27 L411.23,290.0 L423.3,287.18 L428.43,289.31 L424.51,291.31 L427.16,294.03 L430.05,293.88 L430.08,302.55 L422.92,306.5 L419.68,311.25 L409.03,314.64 L409.88,325.48 L406.02,328.36 L394.5,349.66 L389.83,351.17 L385.01,347.3 L382.35,350.07 L374.49,347.1 L369.55,349.47 L355.43,342.19 L353.18,338.77 L353.38,332.69 Z"><title>Batang</title></path>
  <path id="purbalingga" data-name="Purbalingga" class="kab" fill="#C8B89A" stroke="#3B1F0C" stroke-width="0.8" d="M236.36,414.86 L234.33,418.26 L233.65,416.5 L229.82,415.73 L231.37,411.28 L232.79,412.88 L235.35,410.13 L232.67,406.89 L233.27,403.98 L227.59,399.6 L211.71,370.27 L203.14,362.55 L203.4,360.94 L217.94,356.53 L236.76,354.73 L246.7,349.91 L254.27,352.48 L260.87,347.69 L262.45,344.26 L265.73,344.26 L267.19,351.3 L272.89,357.46 L280.83,360.96 L287.81,359.2 L292.6,364.61 L297.95,366.7 L302.0,372.65 L297.39,374.83 L296.09,381.93 L286.49,379.94 L284.02,384.3 L292.34,397.59 L279.39,399.74 L280.39,408.49 L271.71,406.59 L267.8,409.05 L265.32,407.67 L264.46,409.74 L262.45,408.13 L259.97,410.53 L258.79,409.55 L256.5,415.01 L252.2,412.33 L252.17,414.28 L246.2,415.85 L244.27,414.71 L241.71,416.88 L236.36,414.86 Z"><title>Purbalingga</title></path>
</g>
</svg>